<!--https://www.svgrepo.com/svg/66134/beach-->
<svg height="256px" width="256px" version="1.1" id="Layer_1" xmlns="http://www.w3.org/2000/svg"
     xmlns:xlink="http://www.w3.org/1999/xlink" viewBox="0 0 258.101 258.101" xml:space="preserve" fill="#000000"><g id="SVGRepo_bgCarrier" stroke-width="0"></g>
    <g id="SVGRepo_tracerCarrier" stroke-linecap="round" stroke-linejoin="round"></g>
    <g id="SVGRepo_iconCarrier"> <g> <path style="fill:#00474d;"
                                           d="M230.414,32.659c1.14-0.312,2.129,0.903,1.521,1.84c-1.064,1.632-3.193,2.638-4.866,3.749 c-1.939,1.284-3.839,2.673-5.892,3.818c-1.178,0.625-2.395-0.868-1.445-1.736c1.711-1.527,3.649-2.881,5.512-4.27 C226.803,34.846,228.4,33.215,230.414,32.659z"></path>
        <path style="fill:#00474d;"
              d="M230.338,66.399c1.368,1.146-0.342,2.707-1.787,2.152c-1.749-0.729-3.269-1.909-4.828-2.916 c-1.407-0.972-2.927-1.875-4.144-3.089c-0.608-0.59-0.038-1.77,0.95-1.458c1.787,0.555,3.383,1.493,4.98,2.395 C227.183,64.386,228.932,65.184,230.338,66.399z"></path>
        <path style="fill:#00474d;"
              d="M215.513,91.079c0.342,1.18-1.254,1.979-2.243,1.18c-1.482-1.284-2.319-3.263-3.307-4.929 c-1.064-1.805-2.205-3.645-3.155-5.519c-0.494-1.007,0.912-1.736,1.635-0.868c1.368,1.666,2.623,3.402,3.878,5.137 C213.46,87.642,214.981,89.239,215.513,91.079z"></path>
        <path style="fill:#00474d;"
              d="M214.601,52.48c4.524,11.212-3.573,22.389-15.852,25.235c-12.811,2.916-25.888-4.408-28.663-16.175 c-1.939-8.227,2.699-18.154,11.176-21.556c0.076-0.069,0.152-0.139,0.266-0.208C194.339,32.139,209.773,40.4,214.601,52.48z M193.199,74.799c11.784-0.312,21.858-9.962,17.791-20.931c-4.029-11.038-16.346-16.592-27.94-11.663 c-0.114,0.035-0.19,0.035-0.304,0.069c-5.55,3.818-9.846,8.574-9.465,15.689C173.811,67.475,182.859,75.042,193.199,74.799z"></path>
        <path style="fill:#FFED33;"
              d="M210.989,53.868c4.068,10.969-6.006,20.619-17.791,20.931c-10.34,0.243-19.387-7.324-19.919-16.835 c-0.38-7.116,3.915-11.871,9.465-15.689c0.114-0.035,0.19-0.035,0.304-0.069C194.643,37.276,206.96,42.83,210.989,53.868z M198.635,69.419c0.798-0.035,1.102-1.25,0.19-1.389c-3.117-0.416-6.196-1.354-8.705-3.193c-0.912-0.66-2.205,0.486-1.292,1.18 C191.64,68.239,194.909,69.558,198.635,69.419z M191.488,71.224c0.798,0.069,0.988-1.111,0.19-1.25 c-3.459-0.625-6.538-2.36-8.553-4.998c-0.494-0.66-1.635-0.069-1.178,0.625C183.999,68.829,187.42,70.842,191.488,71.224z"></path>
        <path style="fill:#00474d;"
              d="M192.742,229.612c9.77-1.805,19.273,6.109,17.715,15.342c-1.064,6.63-10.53,14.926-18.171,12.774 c-0.456,0.382-1.178,0.521-1.901,0.174c-29.575-13.607-64.7,1.423-96.708-1.111c-0.228,0.59-0.76,1.111-1.482,1.18 c-3.801,0.486-7.337-2.603-8.097-5.831c-0.418-1.77,0.266-3.922,1.635-4.998c-7.641-5.554-6.957-16.939,1.711-21.556 c7.451-3.957,19.083,0.486,19.425,8.365c1.216-1.666,3.193-2.881,5.588-3.124c2.281-0.243,5.17,0.729,7.185,2.326 c1.026-4.131,4.828-7.602,9.465-8.504c-7.413-17.425-14.483-35.926-19.083-54.185c-13.799-5.068-28.511,2.222-38.394,12.566 c0.874,1.493-1.482,3.263-3.193,2.013c-11.861-8.574-35.999-4.165-39.649,10.622c-0.076,0.243-0.266,0.382-0.494,0.451 c-0.608,0.59-1.825,0.382-1.901-0.625c-0.95-20.237,6.538-39.814,19.615-55.573c-3.193,1.493-7.109,1.041-10.264-1.874 c-4.22-3.922-5.55-10.691-1.14-14.509c-4.638-0.139-9.047-3.54-8.591-8.157c0.608-6.213,8.021-7.255,13.647-6.561 c-3.725-4.165-0.494-11.316,4.714-13.503c7.565-3.159,14.826,0.937,18.931,6.699c0.494-6.144,8.819-9.615,14.864-6.595 c7.223,3.575,8.249,12.635,2.965,17.98c3.725-1.666,7.565-3.193,11.556-4.374c0.152-0.451,0.684-0.625,1.102-0.382 c0.228-0.035,0.456-0.139,0.684-0.208c37.292-10.448,94.351-0.104,107.884,37.974c0.494,1.423-1.406,2.464-2.623,1.979 c-1.102,0.451-2.471-0.382-2.433-1.493c-0.038,0.243-9.428,0.521-10.53,0.729c-2.547,0.486-5.018,1.319-7.451,2.222 c-5.474,2.083-10.264,4.894-12.355,10.066c0.912,1.284-0.912,3.159-2.509,2.256c-16.308-9.164-34.593-5.623-42.994,10.76 c-0.076,0.139-0.19,0.208-0.266,0.312c5.74,18.293,11.86,36.169,18.627,54.185c1.597,1.25,2.889,2.777,3.573,4.478 c0.456-2.603,1.977-4.999,4.942-6.144c2.319-0.868,5.322-0.312,7.185,1.18c1.368-3.402,3.954-6.63,8.021-7.185 c3.611-0.486,7.109,1.458,8.553,4.27c2.547-3.298,7.907-4.755,12.203-4.027C189.131,220.864,193.351,225.169,192.742,229.612z M192.02,255.194c6.919,1.076,14.826-6.179,14.75-12.253c-0.114-7.498-7.337-10.24-14.255-9.789 c0.646,1.041,1.102,2.117,1.331,3.193c0.266,1.423-1.901,2.013-2.395,0.625c-1.14-3.228-3.839-4.374-6.919-5.727 c-1.331-0.59-0.608-2.395,0.722-2.43c1.331,0,2.585,0.382,3.725,1.007c-0.114-3.298-1.901-5.936-5.968-6.526 c-4.258-0.625-8.173,1.389-10.074,4.825c-0.19,0.312-0.456,0.417-0.798,0.486c-0.722,0.486-2.053,0.243-2.281-0.694 c-0.874-3.367-4.105-6.491-8.059-4.408c-2.357,1.25-3.611,3.575-4.676,5.797c0.152,0.66,0.228,1.354,0,2.117 c-0.418,1.354-2.547,1.319-2.965,0c-0.798-2.603-3.307-3.992-5.93-2.152c-2.243,1.597-2.585,4.2-2.395,6.63 c0.76,0.173,1.482,0.382,2.129,0.694c1.216,0.625,0.608,2.256-0.684,2.291c-2.775,0.104-6.12-1.527-8.591-2.673 c-1.178-0.555-0.342-2.291,0.912-1.944c0.266,0.104,0.532,0.139,0.76,0.243c-1.673-3.679-4.372-6.873-9.313-6.803 c-5.056,0.069-8.325,3.922-9.39,8.088c0.228,0.555,0.38,1.18,0.342,1.805c-0.076,1.041-1.521,1.77-2.395,0.902 c-1.863-1.84-2.547-4.096-5.588-4.686c-2.927-0.555-5.664,1.458-6.158,4.026c1.292,0.694,2.319,1.597,2.775,2.846 c0.418,1.041-1.026,1.979-2.015,1.423c-1.293-0.764-2.167-1.909-3.611-2.499c-1.558-0.66-3.155-0.694-4.866-0.486 c-1.482,0.208-2.015-1.527-0.608-2.048c1.178-0.417,2.661-0.521,4.144-0.382c-1.254-6.838-7.717-12.357-15.206-7.602 c-7.033,4.408-4.98,12.184-0.19,17.217c0.076,0.069,0.038,0.139,0.076,0.208c0.418,0.069,0.836,0.208,1.255,0.451 c1.064,0.59,0.342,1.944-0.798,1.736c-2.281-0.417-1.102,3.367-0.456,4.165c0.722,0.903,1.673,1.423,2.699,1.805 c18.855-0.035,37.14-2.812,55.767-4.825c2.167-0.243,4.334-0.486,6.5-0.694C167.083,247.801,180.274,247.974,192.02,255.194z M179.019,146.061c3.421-1.25,11.936-3.888,17.525-2.812c-16.992-29.192-58.238-39.467-92.754-33.01 c26.572,2.221,57.667,20.931,62.457,44.639C168.984,150.678,173.735,147.971,179.019,146.061z M119.907,170.88 c6.614-16.106,28.472-23.048,44.02-13.19c-8.629-26.311-38.356-43.32-67.817-45.715c-0.304,0.07-0.608,0.139-0.912,0.208 C102.193,132.246,109.796,151.858,119.907,170.88z M131.806,224.44c1.52,0.069,3.079,0.451,4.562,1.041 c-7.641-15.828-13.267-33.253-16.118-50.297c-0.646,0.347-1.483,0.347-2.243-0.243c-1.977-1.527-3.992-2.742-6.006-3.679 C119.679,188.409,126.028,206.702,131.806,224.44z M115.156,168.311c-9.504-17.772-17.296-36.273-21.782-55.642 c-0.076,0.035-0.152,0.035-0.228,0.069c-15.396,21.903-21.174,42.035-22.428,67.479C79.194,167.305,100.9,160.224,115.156,168.311z M78.738,113.572c2.699-4.374,4.562-9.858,0.152-14.023c-4.828-4.547-12.05-1.979-13.077,3.992 c1.178,0.416,2.243,1.007,2.509,1.874c0.038,0.069,0,0.208-0.076,0.243c-2.205,1.562-5.474-1.458-7.983-0.139 c-1.14,0.59-2.699-0.66-1.901-1.736c0.684-0.937,1.673-1.25,2.699-1.25c-3.231-3.402-7.793-6.04-12.849-5.172 c-6.69,1.111-8.097,6.63-4.98,11.455c0.418,0.694-0.114,1.458-0.798,1.631c-0.152,0.208-0.38,0.382-0.722,0.417 c-3.991,0.035-10.378-0.59-12.24,3.679c-0.912,2.152,0.38,4.478,2.509,5.554c1.445,0.729,3.003,0.798,4.562,0.798 c-0.228-1.111-0.152-2.291,0.228-3.263c0.418-1.007,1.939-0.625,1.749,0.417c-0.532,2.673,1.292,3.888,3.117,5.589 c0.57,0.555,0.19,1.77-0.76,1.666c-1.482-0.174-2.585-0.937-3.307-2.013c-0.038,0.035-0.038,0.069-0.038,0.069 c-3.953,3.471-3.801,8.747-0.076,12.323c2.091,2.013,4.98,3.367,7.755,1.423c1.33-0.972,2.129-2.395,3.345-3.436 c0.798-0.694,2.357-0.208,2.357,0.764c7.869-8.122,17.296-14.995,27.902-20.028C78.624,114.196,78.548,113.919,78.738,113.572z M68.816,180.981c-3.915-22.771,4.22-48.075,19.311-66.507c-33.376,12.218-53.22,40.959-58.428,72.581 c3.231-3.749,8.781-6.456,13.153-8.088C51.558,175.74,61.176,176.122,68.816,180.981z"></path>
        <path style="fill:#00474d;"
              d="M206.466,15.686c0.646-0.868,2.319-0.625,2.281,0.555c-0.076,2.36-1.407,4.582-2.395,6.734 c-0.988,2.187-2.015,4.374-3.307,6.422c-0.532,0.903-2.091,0.312-1.787-0.694c0.76-2.291,1.749-4.547,2.623-6.838 C204.641,19.816,205.097,17.456,206.466,15.686z"></path>
        <path style="fill:#CA9E67;"
              d="M206.77,242.941c0.076,6.075-7.831,13.329-14.75,12.253c-11.746-7.22-24.937-7.394-38.698-6.04 c-2.167,0.208-4.334,0.451-6.5,0.694l-0.532-4.027c1.711-1.007,3.535-1.493,5.588-1.111c0.76,0.104,1.064-0.902,0.304-1.076 c-1.026-0.208-2.015-0.243-2.965-0.069l-1.939-4.686c1.293-0.035,1.901-1.666,0.684-2.291c-0.646-0.312-1.368-0.521-2.129-0.694 c-0.19-2.43,0.152-5.033,2.395-6.63c2.623-1.84,5.132-0.451,5.93,2.152c0.418,1.319,2.547,1.354,2.965,0 c0.228-0.764,0.152-1.458,0-2.117c1.064-2.221,2.319-4.547,4.676-5.797c3.953-2.083,7.185,1.041,8.059,4.408 c0.228,0.937,1.559,1.18,2.281,0.694c0.342-0.069,0.608-0.174,0.798-0.486c1.901-3.436,5.816-5.45,10.074-4.825 c4.067,0.59,5.854,3.228,5.968,6.526c-1.14-0.625-2.395-1.007-3.725-1.007c-1.331,0.035-2.053,1.84-0.722,2.43 c3.079,1.354,5.778,2.499,6.919,5.727c0.494,1.389,2.661,0.798,2.395-0.625c-0.228-1.076-0.684-2.152-1.331-3.193 C199.433,232.701,206.656,235.443,206.77,242.941z M203.881,241.032c0.304-3.089-1.863-5.762-5.094-6.595 c-0.532-0.139-0.912,0.625-0.38,0.833c2.547,1.007,4.105,3.228,4.144,5.762C202.55,241.83,203.805,241.795,203.881,241.032z M199.433,246.586c1.901-2.187,1.749-5.172-0.57-7.046c-0.456-0.382-1.292,0.104-0.912,0.625c1.407,1.631,1.559,3.818,0.342,5.589 C197.874,246.412,198.901,247.21,199.433,246.586z M167.311,233.326c0.836-2.638-0.418-5.311-3.117-6.56 c-0.494-0.243-0.95,0.417-0.456,0.694c2.053,1.18,3.003,3.471,2.395,5.589C165.943,233.742,167.083,234.02,167.311,233.326z"></path>
        <path style="fill:#00474d;"
              d="M198.787,234.437c3.231,0.833,5.398,3.506,5.094,6.595c-0.076,0.764-1.33,0.798-1.33,0 c-0.038-2.534-1.596-4.756-4.144-5.762C197.874,235.061,198.254,234.298,198.787,234.437z"></path>
        <path style="fill:#00474d;"
              d="M198.863,239.539c2.319,1.874,2.471,4.86,0.57,7.046c-0.532,0.625-1.559-0.174-1.14-0.833 c1.216-1.77,1.064-3.957-0.342-5.589C197.57,239.643,198.407,239.157,198.863,239.539z"></path>
        <path style="fill:#00474d;"
              d="M198.825,68.03c0.912,0.139,0.608,1.354-0.19,1.389c-3.725,0.139-6.995-1.18-9.808-3.402 c-0.912-0.694,0.38-1.84,1.292-1.18C192.628,66.677,195.708,67.614,198.825,68.03z"></path>
        <path style="fill:#FFED33;"
              d="M196.544,143.25c-5.588-1.076-14.103,1.562-17.525,2.812c-5.284,1.909-10.036,4.617-12.773,8.817 c-4.79-23.708-35.885-42.417-62.457-44.639C138.306,103.783,179.552,114.058,196.544,143.25z M182.707,131.205 c0.456,0.764,1.939,0.243,1.597-0.59c-1.102-2.465-2.965-4.235-5.626-5.311c-1.064-0.451-2.015,0.972-0.95,1.458 C179.932,127.769,181.528,129.261,182.707,131.205z M158.302,131.656c0.456,0.486,1.406-0.174,0.988-0.694 c-1.368-1.874-3.307-3.055-5.626-3.749c-0.836-0.278-1.216,0.937-0.38,1.215C155.299,129.053,156.895,130.198,158.302,131.656z"></path>
        <path style="fill:#00474d;"
              d="M191.678,69.974c0.798,0.139,0.608,1.319-0.19,1.25c-4.068-0.382-7.489-2.395-9.542-5.623 c-0.456-0.694,0.684-1.284,1.178-0.625C185.14,67.614,188.219,69.349,191.678,69.974z"></path>
        <path style="fill:#00474d;"
              d="M184.303,130.615c0.342,0.833-1.141,1.354-1.597,0.59c-1.178-1.944-2.775-3.436-4.98-4.443 c-1.064-0.486-0.114-1.909,0.95-1.458C181.338,126.38,183.201,128.15,184.303,130.615z"></path>
        <path style="fill:#00474d;"
              d="M180.388,80.7c0.798-1.458,3.155-0.382,2.775,1.076c-1.102,4.374-4.296,8.713-7.337,12.149 c-0.874,1.041-2.699-0.312-1.939-1.388c1.292-1.84,2.547-3.714,3.649-5.727C178.601,84.831,179.285,82.678,180.388,80.7z"></path>
        <path style="fill:#00474d;"
              d="M182.213,31.202c0.342,1.458-1.597,2.117-2.509,0.972c-1.559-1.979-2.319-4.513-3.307-6.734 c-1.064-2.499-2.243-4.964-3.155-7.532c-0.342-0.972,1.254-1.562,1.787-0.694c1.445,2.326,2.699,4.79,3.954,7.22 C180.16,26.62,181.68,28.806,182.213,31.202z"></path>
        <path style="fill:#00474d;"
              d="M164.194,226.765c2.699,1.25,3.953,3.922,3.117,6.56c-0.228,0.694-1.368,0.417-1.178-0.278 c0.608-2.117-0.342-4.408-2.395-5.589C163.244,227.182,163.7,226.522,164.194,226.765z"></path>
        <path style="fill:#00474d;"
              d="M162.597,47.828c1.102,0.903-0.038,2.534-1.368,2.187c-2.319-0.625-4.334-1.944-6.386-3.055 c-2.243-1.25-4.486-2.465-6.691-3.714c-1.368-0.764-0.19-2.534,1.217-1.909c2.357,1.041,4.676,2.117,7.033,3.193 C158.53,45.537,160.811,46.37,162.597,47.828z"></path>
        <path style="fill:#00474d;"
              d="M161.989,66.781c1.749-0.069,1.711,2.048,0.38,2.534c-2.357,0.903-4.942,1.25-7.413,1.874 c-2.433,0.66-4.866,1.423-7.261,2.221c-1.178,0.417-1.939-1.319-0.836-1.805C151.383,69.488,156.819,66.989,161.989,66.781z"></path>
        <path style="fill:#00474d;"
              d="M159.29,130.962c0.418,0.521-0.532,1.18-0.988,0.694c-1.407-1.458-3.003-2.603-5.018-3.228 c-0.836-0.278-0.456-1.493,0.38-1.215C155.983,127.907,157.922,129.088,159.29,130.962z"></path>
        <path style="fill:#00474d;"
              d="M152.181,243.635c0.76,0.174,0.456,1.18-0.304,1.076c-2.053-0.382-3.877,0.104-5.588,1.111 c-0.342,0.174-0.646-0.243-0.418-0.486c0.95-0.972,2.091-1.527,3.345-1.77C150.167,243.392,151.155,243.427,152.181,243.635z"></path>
        <path style="fill:#EF67AC;"
              d="M163.928,157.69c-15.548-9.858-37.406-2.916-44.02,13.19 c-10.112-19.022-17.715-38.634-24.709-58.697c0.304-0.069,0.608-0.139,0.912-0.208C125.572,114.37,155.299,131.379,163.928,157.69z M134.049,153.143c1.102-0.104,1.14-1.631,0-1.597c-3.992,0.104-9.846,1.423-9.199,6.213c0.114,0.555,1.064,0.625,1.064,0 C125.8,153.872,130.932,153.386,134.049,153.143z M122.302,123.95c0.684,0.382,1.482-0.555,0.874-1.041 c-3.611-2.881-8.173-4.061-12.925-3.61c-0.988,0.069-1.026,1.493,0,1.458C114.623,120.549,118.691,121.729,122.302,123.95z M121.314,128.324c0.76,0.416,1.368-0.625,0.684-1.041c-2.205-1.354-4.41-2.673-6.652-3.922c-0.798-0.417-1.483,0.66-0.722,1.146 C116.828,125.825,119.033,127.109,121.314,128.324z"></path>
        <path style="fill:#CA9E67;"
              d="M147.278,238.88l1.939,4.686c-1.254,0.243-2.395,0.798-3.345,1.77 c-0.228,0.243,0.076,0.66,0.418,0.486l0.532,4.027c-18.627,2.013-36.912,4.79-55.767,4.825c-1.026-0.382-1.977-0.902-2.699-1.805 c-0.646-0.798-1.825-4.582,0.456-4.165c1.14,0.208,1.863-1.145,0.798-1.736c-0.418-0.243-0.836-0.382-1.255-0.451 c-0.038-0.07,0-0.139-0.076-0.208c-4.79-5.033-6.842-12.809,0.19-17.217c7.489-4.755,13.951,0.764,15.206,7.602 c-1.482-0.139-2.965-0.035-4.144,0.382c-1.407,0.521-0.874,2.256,0.608,2.048c1.711-0.208,3.307-0.173,4.866,0.486 c1.445,0.59,2.319,1.736,3.611,2.499c0.988,0.555,2.433-0.382,2.015-1.423c-0.456-1.25-1.482-2.152-2.775-2.846 c0.494-2.569,3.231-4.582,6.158-4.026c3.041,0.59,3.725,2.846,5.588,4.686c0.874,0.868,2.319,0.139,2.395-0.902 c0.038-0.625-0.114-1.25-0.342-1.805c1.064-4.165,4.334-8.018,9.39-8.088c4.942-0.069,7.641,3.124,9.313,6.803 c-0.228-0.104-0.494-0.139-0.76-0.243c-1.254-0.347-2.091,1.388-0.912,1.944C141.157,237.352,144.503,238.984,147.278,238.88z M131.768,234.853c0.494,0.451,1.178-0.208,0.76-0.694c-1.445-1.631-3.687-2.083-5.816-1.458c-0.608,0.208-0.342,1.076,0.304,0.937 C128.803,233.152,130.437,233.673,131.768,234.853z M121.504,246.69c0.684-0.278,0.19-1.388-0.532-1.146 c-1.673,0.521-3.307,1.146-4.942,1.77c-0.722,0.278-0.19,1.423,0.532,1.18C118.235,247.939,119.869,247.349,121.504,246.69z M92.727,235.443c0.57-0.59-0.342-1.423-0.988-0.868c-1.216,1.041-1.368,2.395-0.646,3.749c0.418,0.764,1.635,0.104,1.254-0.66 C91.891,236.832,92.005,236.068,92.727,235.443z M90.142,243.357c0.57,0.66,1.825-0.208,1.292-0.937 c-1.597-2.083-2.205-4.339-2.851-6.769c-0.19-0.764-1.292-0.486-1.368,0.174C86.835,238.602,88.204,241.24,90.142,243.357z"></path>
        <path style="fill:#00474d;"
              d="M123.177,122.909c0.608,0.486-0.19,1.423-0.874,1.041c-3.611-2.222-7.679-3.402-12.05-3.194 c-1.026,0.035-0.988-1.388,0-1.458C115.004,118.848,119.565,120.028,123.177,122.909z"></path>
        <path style="fill:#00474d;"
              d="M121.998,127.283c0.684,0.417,0.076,1.458-0.684,1.041c-2.281-1.215-4.486-2.499-6.691-3.818 c-0.76-0.486-0.076-1.562,0.722-1.146C117.589,124.61,119.793,125.929,121.998,127.283z"></path>
        <path style="fill:#33AA6C;"
              d="M93.374,112.669c4.486,19.369,12.279,37.87,21.782,55.642c-14.255-8.088-35.961-1.007-44.438,11.906 c1.255-25.443,7.033-45.576,22.428-67.479C93.222,112.704,93.298,112.704,93.374,112.669z M82.882,154.843 c0.19-0.66-0.912-1.146-1.254-0.486c-0.798,1.597-1.33,3.298-1.977,4.929c-0.266,0.764,1.026,1.076,1.331,0.347 C81.627,158.037,82.387,156.475,82.882,154.843z M78.51,154.982c0.456-0.694-0.646-1.25-1.178-0.625 c-1.711,2.187-2.319,4.617-1.939,7.255c0.076,0.764,1.368,0.798,1.33,0C76.533,159.252,77.18,157.03,78.51,154.982z"></path>
        <path style="fill:#00474d;"
              d="M91.739,234.575c0.646-0.555,1.559,0.278,0.988,0.868c-0.722,0.625-0.836,1.389-0.38,2.222 c0.38,0.764-0.836,1.423-1.254,0.66C90.37,236.971,90.523,235.617,91.739,234.575z"></path>
        <path style="fill:#00474d;"
              d="M91.435,242.42c0.532,0.729-0.722,1.597-1.292,0.937c-1.939-2.117-3.307-4.755-2.927-7.532 c0.076-0.66,1.178-0.937,1.368-0.174C89.23,238.081,89.838,240.338,91.435,242.42z"></path>
        <path style="fill:#00474d;"
              d="M81.627,154.357c0.342-0.66,1.445-0.173,1.254,0.486c-0.494,1.631-1.254,3.193-1.901,4.79 c-0.304,0.729-1.597,0.417-1.331-0.347C80.297,157.655,80.829,155.954,81.627,154.357z"></path>
        <path style="fill:#CCECF9;"
              d="M78.89,99.548c4.41,4.165,2.547,9.65-0.152,14.023c-0.19,0.347-0.114,0.625,0.076,0.833 c-10.606,5.033-20.033,11.906-27.902,20.028c0-0.972-1.559-1.458-2.357-0.764c-1.216,1.041-2.015,2.464-3.345,3.436 c-2.775,1.944-5.664,0.59-7.755-1.423c-3.725-3.575-3.877-8.851,0.076-12.323c0,0,0-0.035,0.038-0.069 c0.722,1.076,1.825,1.84,3.307,2.013c0.95,0.104,1.331-1.111,0.76-1.666c-1.825-1.701-3.649-2.916-3.117-5.589 c0.19-1.041-1.33-1.423-1.749-0.417c-0.38,0.972-0.456,2.152-0.228,3.263c-1.559,0-3.117-0.069-4.562-0.798 c-2.129-1.076-3.421-3.402-2.509-5.554c1.863-4.27,8.249-3.645,12.24-3.679c0.342-0.035,0.57-0.208,0.722-0.417 c0.684-0.174,1.216-0.937,0.798-1.631c-3.117-4.825-1.711-10.344,4.98-11.455c5.056-0.868,9.618,1.77,12.849,5.172 c-1.026,0-2.015,0.312-2.699,1.25c-0.798,1.076,0.76,2.326,1.901,1.736c2.509-1.319,5.778,1.701,7.983,0.139 c0.076-0.035,0.114-0.174,0.076-0.243c-0.266-0.868-1.33-1.458-2.509-1.874C66.84,97.57,74.062,95.001,78.89,99.548z M76.305,104.928c0.152,0.555,1.178,0.486,1.102-0.139c-0.266-2.291-2.053-3.992-4.562-4.443c-0.57-0.104-0.798,0.625-0.228,0.798 C74.595,101.735,75.811,103.158,76.305,104.928z M74.062,109.267c0.114,0.555,1.14,0.416,1.064-0.139 c-0.19-2.013-0.988-3.645-2.471-5.137c-0.494-0.521-1.216,0.208-0.798,0.729C72.998,106.039,73.72,107.601,74.062,109.267z M58.667,117.286c0.76,0.243,1.292-0.868,0.57-1.215c-2.243-1.041-4.486-1.388-6.957-1.215c-0.95,0.069-0.988,1.388,0,1.354 C54.485,116.14,56.614,116.557,58.667,117.286z M49.999,129.261c0.456-0.278,0.076-0.868-0.38-0.66 c-2.509,1.076-4.638,2.881-6.576,4.651c-0.304,0.278,0.152,0.729,0.494,0.417C45.552,131.969,47.833,130.719,49.999,129.261z M47.034,127.178c0.722-0.035,0.722-1.007,0-1.041c-2.927-0.174-5.246,2.083-5.36,4.686c-0.038,0.59,0.95,0.59,0.988,0 C42.853,128.671,44.754,127.283,47.034,127.178z"></path>
        <path style="fill:#00474d;"
              d="M77.332,154.357c0.532-0.625,1.635-0.069,1.178,0.625c-1.331,2.048-1.977,4.27-1.787,6.63 c0.038,0.798-1.254,0.764-1.33,0C75.013,158.974,75.621,156.544,77.332,154.357z"></path>
        <path style="fill:#00474d;"
              d="M77.408,104.79c0.076,0.625-0.95,0.694-1.102,0.139c-0.494-1.77-1.711-3.193-3.687-3.784 c-0.57-0.174-0.342-0.902,0.228-0.798C75.355,100.798,77.142,102.499,77.408,104.79z"></path>
        <path style="fill:#00474d;"
              d="M75.127,109.129c0.076,0.555-0.95,0.694-1.064,0.139c-0.342-1.666-1.064-3.228-2.205-4.547 c-0.418-0.521,0.304-1.25,0.798-0.729C74.138,105.484,74.937,107.115,75.127,109.129z"></path>
        <path style="fill:#00474d;"
              d="M72.428,128.393c0.76-0.868,2.433,0.312,1.711,1.18c-1.901,2.326-2.889,4.929-3.231,7.741 c-0.152,1.215-2.091,1.284-2.091,0C68.74,133.982,70.185,130.997,72.428,128.393z"></path>
        <path style="fill:#66C5EE;"
              d="M88.128,114.474c-15.092,18.432-23.227,43.736-19.311,66.507c-7.641-4.86-17.258-5.241-25.964-2.013 c-4.372,1.631-9.922,4.339-13.153,8.088C34.908,155.434,54.751,126.693,88.128,114.474z M74.138,129.574 c0.722-0.868-0.95-2.048-1.711-1.18c-2.243,2.603-3.687,5.589-3.611,8.921c0,1.284,1.939,1.215,2.091,0 C71.249,134.503,72.238,131.899,74.138,129.574z M44.754,160.883c0.228-0.66-0.912-0.937-1.179-0.278 c-1.178,2.881-2.281,5.762-3.269,8.678c-0.266,0.729,0.95,1.007,1.216,0.312C42.701,166.715,43.765,163.834,44.754,160.883z M40.116,164.597c0.38-0.798-0.836-1.458-1.254-0.694c-1.673,2.881-2.927,6.144-2.927,9.441c0,0.59,0.988,0.729,1.14,0.139 C37.949,170.429,38.709,167.478,40.116,164.597z"></path>
        <path style="fill:#00474d;"
              d="M59.237,116.071c0.722,0.347,0.19,1.458-0.57,1.215c-2.053-0.729-4.181-1.146-6.386-1.076 c-0.988,0.035-0.95-1.284,0-1.354C54.751,114.682,56.994,115.03,59.237,116.071z"></path>
        <path style="fill:#00474d;"
              d="M49.619,128.602c0.456-0.208,0.836,0.382,0.38,0.66c-2.167,1.458-4.448,2.708-6.462,4.408 c-0.342,0.312-0.798-0.139-0.494-0.417C44.982,131.483,47.11,129.678,49.619,128.602z"></path>
        <path style="fill:#00474d;"
              d="M47.034,126.137c0.722,0.035,0.722,1.007,0,1.041c-2.281,0.104-4.181,1.493-4.372,3.645 c-0.038,0.59-1.026,0.59-0.988,0C41.788,128.22,44.107,125.964,47.034,126.137z"></path>
        <path style="fill:#00474d;"
              d="M43.575,160.606c0.266-0.66,1.406-0.382,1.179,0.278c-0.988,2.951-2.053,5.831-3.231,8.712 c-0.266,0.694-1.483,0.417-1.216-0.312C41.294,166.368,42.397,163.487,43.575,160.606z"></path>
        <path style="fill:#00474d;"
              d="M38.861,163.903c0.418-0.764,1.635-0.104,1.254,0.694c-1.406,2.881-2.167,5.831-3.041,8.886 c-0.152,0.59-1.14,0.451-1.14-0.139C35.934,170.047,37.189,166.784,38.861,163.903z"></path> </g> </g></svg>
